# xmcd CD database file
#
# Track frame offsets:
#	150
#	21350
#	35750
#	55578
#	68403
#	86403
#	98478
#	113178
#	128478
#	146928
#	159378
#	176103
#
# Disc length: 2501 seconds
#
# Revision: 0
# Processed by: cddbd v1.5.2PL0 Copyright (c) Steve Scherf et al.
# Submitted via: CDex 1.77
#
DISCID=9809c30c
DTITLE=Berenika Kohoutova - BERENIKA meets jazz
DYEAR=2013
DGENRE=Jazz
TTITLE0=Plastova
TTITLE1=Blues
TTITLE2=Prelude to a Kiss
TTITLE3=Karlovky
TTITLE4=Vodnarka
TTITLE5=Je nebezpecne dotykat se hvezd
TTITLE6=Labute
TTITLE7=Feel Slim
TTITLE8=Stardust
TTITLE9=Duet nemilostny
TTITLE10=Frnda
TTITLE11=Love or leave me
EXTD=YEAR: 2013
EXTT0=
EXTT1=
EXTT2=
EXTT3=
EXTT4=
EXTT5=
EXTT6=
EXTT7=
EXTT8=
EXTT9=
EXTT10=
EXTT11=
PLAYORDER=
